<svg width="76" height="81" viewBox="0 0 76 81" fill="none" xmlns="http://www.w3.org/2000/svg">
<path d="M58.5881 48.3401C62.227 55.4287 62.1634 62.5466 62.0772 72.1893C62.069 73.1028 62.0606 74.039 62.0552 75H32.5621L3.06375 75C3.04953 73.6609 3.02382 72.3466 2.99855 71.0544C2.92271 67.1773 2.85078 63.4997 3.10458 59.9529C3.47896 54.721 4.55468 50.1716 7.21055 46.3845C7.47773 46.0035 7.71996 45.6506 7.94894 45.3169C8.6387 44.3119 9.20837 43.4818 9.9784 42.5873C10.9663 41.4398 12.2932 40.1879 14.5604 38.5658C14.8382 38.367 15.1302 38.1627 15.4374 37.9523C17.0758 39.5652 19.6301 41.7503 24.2346 42.9781C26.5021 43.5828 29.2311 43.9502 32.5621 43.9502C35.3296 43.9502 37.7599 43.568 39.8772 42.9705C44.6636 41.6198 47.9368 39.0704 49.5205 37.7723C51.8168 39.1026 53.3635 40.4174 54.6052 41.877C56.0703 43.5993 57.1824 45.6019 58.5881 48.3401Z" stroke="#FB9224" stroke-width="4" stroke-linejoin="round"/>
<path d="M32.5177 1.5C42.2648 1.5 50.1784 9.44036 50.1784 19.25C50.1784 23.9907 48.3312 28.2936 45.3195 31.4777C42.0992 34.8821 37.5551 37 32.5177 37C27.4802 37 22.9361 34.8821 19.7158 31.4777C16.7041 28.2936 14.8569 23.9907 14.8569 19.25C14.8569 15.9136 15.7714 12.7968 17.3608 10.1336C20.4508 4.95622 26.0848 1.5 32.5177 1.5Z" stroke="#FB9224" stroke-width="3" stroke-linejoin="round"/>
<path d="M38.7375 25.4802C38.3992 26.3008 37.9033 27.0464 37.2781 27.6744C36.653 28.3025 35.9108 28.8007 35.0941 29.1406C34.2773 29.4805 33.4019 29.6554 32.5178 29.6554C31.6337 29.6554 30.7583 29.4805 29.9415 29.1406C29.1247 28.8007 28.3826 28.3025 27.7574 27.6744C27.1323 27.0464 26.6364 26.3008 26.2981 25.4802" stroke="#FB9224" stroke-width="4" stroke-linecap="round"/>
<circle cx="60.5" cy="65.5" r="13.5" fill="white" stroke="#FB9224" stroke-width="4"/>
<path d="M28.7247 14C28.621 12.41 28.3809 10.8788 27.9474 10H21.8668C21.8668 10 21 12.5 21 14.5C21 16.5 21 18 21 18H28.7247C28.9789 17.2867 28.8768 16.3303 28.7247 14ZM28.7247 14H36.0264M36.0264 14C36.1302 12.41 36.3703 10.8788 36.8038 10H42.911C42.911 10 43.9389 12.7002 43.9799 14.5C44.0252 16.4908 43.9799 18 43.9799 18H36.0264C35.7723 17.2867 35.8744 16.3303 36.0264 14Z" stroke="#FB9224" stroke-width="3" stroke-linejoin="round"/>
<path d="M58.4822 66.04C58.4822 65.256 59.1142 64.352 60.3782 63.328C60.9382 62.864 61.3142 62.504 61.5062 62.248C61.6982 61.976 61.7942 61.664 61.7942 61.312C61.7942 60.88 61.6502 60.528 61.3622 60.256C61.0742 59.984 60.7142 59.848 60.2822 59.848C59.4022 59.848 58.7382 60.456 58.2902 61.672L55.6502 60.52C55.9862 59.336 56.5622 58.432 57.3782 57.808C58.2102 57.184 59.2102 56.872 60.3782 56.872C61.7222 56.872 62.8422 57.264 63.7382 58.048C64.6502 58.832 65.1062 59.84 65.1062 61.072C65.1062 61.728 64.9542 62.32 64.6502 62.848C64.3462 63.376 63.8342 63.952 63.1142 64.576C62.3942 65.2 61.9302 65.632 61.7222 65.872C61.5302 66.112 61.4342 66.384 61.4342 66.688C61.4342 66.768 61.4502 66.936 61.4822 67.192H58.7462C58.5702 66.792 58.4822 66.408 58.4822 66.04ZM57.9542 71.056C57.9542 70.432 58.1702 69.904 58.6022 69.472C59.0342 69.04 59.5702 68.824 60.2102 68.824C60.8502 68.824 61.3782 69.04 61.7942 69.472C62.2262 69.904 62.4422 70.432 62.4422 71.056C62.4422 71.696 62.2262 72.232 61.7942 72.664C61.3782 73.08 60.8502 73.288 60.2102 73.288C59.5702 73.288 59.0342 73.08 58.6022 72.664C58.1702 72.232 57.9542 71.696 57.9542 71.056Z" fill="#FF0149"/>
</svg>
