<svg width="88" height="79" viewBox="0 0 88 79" fill="none" xmlns="http://www.w3.org/2000/svg">
<path fill-rule="evenodd" clip-rule="evenodd" d="M88 44C88 57.2005 82.187 69.0432 72.9812 77.1081C73.0608 68.6134 73.0423 61.7731 69.626 55.024C67.0896 50.0131 65.2863 47.0066 59.6602 44C59.446 44.1454 59.1679 44.3753 58.821 44.662C57.3867 45.8473 54.7767 48.0043 50.6496 49.1854C48.8958 49.6874 46.8679 50.0131 44.54 50.0131C41.6673 50.0131 39.3639 49.6917 37.4918 49.1854C33.2723 48.0444 31.2432 45.9642 29.8224 44.5075C29.6472 44.3279 29.4812 44.1577 29.3215 44C28.5532 44.506 27.8665 44.98 27.2489 45.4281C23.481 48.162 22.2834 49.9325 20.809 52.1121L20.809 52.1122C20.6101 52.4061 20.4063 52.7075 20.1904 53.0197C15.7331 59.4654 15.8935 67.843 16.0649 76.7888L16.0649 76.7899C16.0727 77.1972 16.0805 77.6056 16.0879 78.0151C6.26535 69.9455 0 57.7044 0 44C0 19.6995 19.6995 0 44 0C68.3005 0 88 19.6995 88 44ZM44.4463 13C53.5689 13 60.9642 20.4992 60.9642 29.75C60.9642 34.2209 59.2368 38.2828 56.4218 41.2866C53.4124 44.4979 49.1599 46.5 44.4463 46.5C39.7327 46.5 35.4803 44.4979 32.4709 41.2866C29.6559 38.2828 27.9285 34.2209 27.9285 29.75C27.9285 26.6052 28.7831 23.6628 30.2697 21.1486C33.1562 16.2672 38.425 13 44.4463 13Z" fill="#C4C4C4"/>
</svg>
